<?xml version="1.0" encoding="utf-8"?>
<!-- Generator: Adobe Illustrator 23.0.6, SVG Export Plug-In . SVG Version: 6.00 Build 0)  -->
<svg version="1.1" id="Layer_1" xmlns="http://www.w3.org/2000/svg" xmlns:xlink="http://www.w3.org/1999/xlink" x="0px" y="0px"
	 viewBox="0 0 200 32.9" style="enable-background:new 0 0 200 32.9;" xml:space="preserve">
<style type="text/css">
	.st0{fill:#FFFFFF;}
	.st1{fill:#EC1C24;}
	.st2{fill:#790008;}
</style>
<g>
	<rect x="3.2" y="3.3" class="st0" width="25.2" height="25.2"/>
	<polygon class="st1" points="19.9,8.1 6.6,8.1 12.5,15.9 25.9,15.9 	"/>
	<polygon class="st2" points="25.9,15.9 12.5,15.9 6.6,23.7 19.9,23.7 	"/>
	<path class="st0" d="M92.2,15.7c0.7-0.4,1.9-1.5,1.9-3.4c0-2.9-2-4.7-5.1-4.7h-6.6v16.5h6.9c3.1,0,5.1-1.8,5.1-4.8
		C94.3,17.1,93,16.1,92.2,15.7 M85.7,10.6h3.1c1.3,0,2,0.7,2,1.8s-0.8,1.8-2,1.8h-3.1V10.6z M88.9,21.2h-3.3v-3.9h3.3
		c1.5,0,2.1,1,2.1,1.9S90.5,21.2,88.9,21.2 M69.4,18.2C69.3,18,63.6,7.6,63.6,7.6h-3.3v16.5h3.3v-9.9c0.3,0.4,5.7,10,5.7,10
		s5.5-9.6,5.7-10v9.9h3.3V7.6H75C75.2,7.6,69.5,18,69.4,18.2 M52.9,24.1h3.3V7.6h-3.3V24.1z M47.4,20.2c-1,0.8-2.1,1.2-3.4,1.2
		c-3,0-5.4-2.4-5.4-5.5s2.3-5.5,5.4-5.5c1.2,0,2.4,0.4,3.4,1.2l0,0l2.3-2.3l-0.1-0.1C48,7.8,46,7.1,43.9,7.1c-4.9,0-8.8,3.9-8.8,8.7
		s4,8.7,8.8,8.7c2.1,0,4.1-0.8,5.7-2.1h0.1L47.4,20.2L47.4,20.2z"/>
</g>
</svg>
